<?xml version="1.0" encoding="iso-8859-1"?>
<!-- Generator: Adobe Illustrator 19.0.0, SVG Export Plug-In . SVG Version: 6.00 Build 0)  -->
<svg version="1.1" id="Capa_1" xmlns="http://www.w3.org/2000/svg" xmlns:xlink="http://www.w3.org/1999/xlink" x="0px" y="0px"
	 viewBox="0 0 480 480" style="enable-background:new 0 0 480 480;" xml:space="preserve">
<g>
	<g>
		<path d="M480,239.28L466.968,96.24c-2.129-23.227-16.725-43.457-38.096-52.8L331.2,0.672c-1.015-0.415-2.104-0.614-3.2-0.584V0
			h-64v16h45.816l-69.528,75.848L177.08,16H216V0h-56v0.064c-1.041-0.024-2.077,0.158-3.048,0.536L52.328,43.68
			C30.261,52.724,15.077,73.317,12.96,97.072L0,239.28c0,0.248,0.088,0.472,0.088,0.72H0v32c0,4.418,3.582,8,8,8h72v192
			c0,4.418,3.582,8,8,8h304c4.418,0,8-3.582,8-8V280h72c4.418,0,8-3.582,8-8v-32h-0.12C479.88,239.752,480,239.528,480,239.28z
			 M330.032,17.6l12.8,5.6l-65.144,94.088l-25.168-15.104L330.032,17.6z M157.6,17.6l70.256,84.312l-25.208,15.128l-57.912-94.104
			L157.6,17.6z M80,264H16v-16h64V264z M384,136v328H96V144H80v88H16.8L28.896,98.512c1.597-17.803,12.986-33.23,29.528-40
			l71.328-29.376l63.432,103.088c2.299,3.736,7.177,4.924,10.936,2.664l27.88-16.76V224c0,4.418,3.582,8,8,8h40v-16h-32v-97.872
			l27.88,16.728c3.615,2.171,8.295,1.163,10.696-2.304l71.2-102.8l64.72,28.304c16.033,7.016,26.977,22.203,28.56,39.632L463.24,232
			H400v-96H384z M464,264h-64v-16h64V264z"/>
	</g>
</g>
<g>
	<g>
		<rect x="232" width="16" height="16"/>
	</g>
</g>
<g>
	<g>
		<rect x="264" y="184" width="16" height="16"/>
	</g>
</g>
<g>
	<g>
		<rect x="264" y="152" width="16" height="16"/>
	</g>
</g>
<g>
</g>
<g>
</g>
<g>
</g>
<g>
</g>
<g>
</g>
<g>
</g>
<g>
</g>
<g>
</g>
<g>
</g>
<g>
</g>
<g>
</g>
<g>
</g>
<g>
</g>
<g>
</g>
<g>
</g>
</svg>
