<svg id="Capa_1" enable-background="new 0 0 512 512" height="512" viewBox="0 0 512 512" width="512" xmlns="http://www.w3.org/2000/svg"><g><path d="m45 512h181c24.814 0 45-20.186 45-45v-61c0-24.814-20.186-45-45-45h-181c-24.814 0-45 20.186-45 45v61c0 24.814 20.186 45 45 45z"/><path d="m166 0h-61c-8.291 0-15 6.709-15 15v316h91v-316c0-8.291-6.709-15-15-15z"/><path d="m262.709 148.418 38.291-19.146v-108.544l-38.291-19.146c-4.673-2.3-10.166-2.08-14.59.659s-7.119 7.559-7.119 12.759v120c0 5.2 2.695 10.02 7.119 12.759 4.331 2.693 9.844 3.016 14.59.659z"/><path d="m437 30h-106v105h91c0-8.276 6.724-15 15-15h30c8.276 0 15 6.724 15 15 0 8.291 6.709 15 15 15s15-6.709 15-15v-30c0-41.353-33.647-75-75-75z"/><path d="m331 165v332c0 8.291 6.709 15 15 15h61c8.291 0 15-6.709 15-15v-332z"/></g></svg>